<svg width="1890" height="1912" xmlns="http://www.w3.org/2000/svg" xmlns:xlink="http://www.w3.org/1999/xlink" overflow="hidden"><defs><clipPath id="clip0"><rect x="993" y="85" width="1890" height="1912"/></clipPath></defs><g clip-path="url(#clip0)" transform="translate(-993 -85)"><path d="M1763.08 294.996 2520.09 463.452 2857 1145.5 2520.09 1827.55 1763.08 1996 1155.99 1524.01 1155.99 766.994Z" fill="#F4B183" fill-rule="evenodd"/><path d="M0 0 33 0 33 891.001 0 891.001Z" fill-rule="evenodd" transform="matrix(-1 0 0 1 1784 221)"/><path d="M1265 607 1298 607 1298 1036 1265 1036Z" fill-rule="evenodd"/><path d="M1265 1078 1775 1078 1775 1111 1265 1111Z" fill-rule="evenodd"/><path d="M1129 1513 1855 1513 1855 1546 1129 1546Z" fill-rule="evenodd"/><path d="M1975 460 2734 460 2734 493 1975 493Z" fill-rule="evenodd"/><path d="M1898 533 1931 533 1931 977 1898 977Z" fill-rule="evenodd"/><path d="M1334 1095C1334 1124.27 1310.49 1148 1281.5 1148 1252.5 1148 1229 1124.27 1229 1095 1229 1065.73 1252.5 1042 1281.5 1042 1310.49 1042 1334 1065.73 1334 1095Z" fill-rule="evenodd"/><path d="M2554 751 2587 751 2587 1048 2554 1048Z" fill-rule="evenodd"/><path d="M2041 1088 2503 1088 2503 1121 2041 1121Z" fill-rule="evenodd"/><path d="M1972 1513 2745 1513 2745 1546 1972 1546Z" fill-rule="evenodd"/><path d="M1898 1236 1931 1236 1931 1467 1898 1467Z" fill-rule="evenodd"/><path d="M2621 696.5C2621 725.495 2597.5 749 2568.5 749 2539.51 749 2516 725.495 2516 696.5 2516 667.505 2539.51 644 2568.5 644 2597.5 644 2621 667.505 2621 696.5Z" fill-rule="evenodd"/><path d="M1913.96 529.973C1883.03 529.973 1857.96 504.902 1857.96 473.973 1857.96 443.045 1883.03 417.973 1913.96 417.973 1944.89 417.973 1969.96 443.045 1969.96 473.973 1969.93 504.889 1944.88 529.94 1913.96 529.973ZM1913.96 424.561C1886.67 424.561 1864.55 446.685 1864.55 473.973 1864.55 501.262 1886.67 523.385 1913.96 523.385 1941.25 523.385 1963.37 501.262 1963.37 473.973 1963.34 446.698 1941.24 424.591 1913.96 424.561Z" fill-rule="evenodd"/><path d="M1913.96 1581.97C1883.03 1581.97 1857.96 1556.9 1857.96 1525.97 1857.96 1495.04 1883.03 1469.97 1913.96 1469.97 1944.89 1469.97 1969.96 1495.04 1969.96 1525.97 1969.93 1556.89 1944.88 1581.94 1913.96 1581.97ZM1913.96 1476.56C1886.67 1476.56 1864.55 1498.68 1864.55 1525.97 1864.55 1553.26 1886.67 1575.39 1913.96 1575.39 1941.25 1575.39 1963.37 1553.26 1963.37 1525.97 1963.34 1498.7 1941.24 1476.59 1913.96 1476.56Z" fill-rule="evenodd"/><path d="M2564.96 1163.97C2534.03 1163.97 2508.96 1138.9 2508.96 1107.97 2508.96 1077.04 2534.03 1051.97 2564.96 1051.97 2595.89 1051.97 2620.96 1077.04 2620.96 1107.97 2620.93 1138.89 2595.88 1163.94 2564.96 1163.97ZM2564.96 1058.56C2537.67 1058.56 2515.55 1080.68 2515.55 1107.97 2515.55 1135.26 2537.67 1157.39 2564.96 1157.39 2592.25 1157.39 2614.37 1135.26 2614.37 1107.97 2614.34 1080.7 2592.24 1058.59 2564.96 1058.56Z" fill-rule="evenodd"/><path d="M1766.96 85.9732C1730.51 85.9732 1700.96 115.525 1700.96 151.973 1700.96 188.425 1730.51 217.973 1766.96 217.973 1803.41 217.973 1832.96 188.425 1832.96 151.973 1832.85 115.567 1803.37 86.0821 1766.96 85.9732ZM1766.96 105.773C1777.9 105.773 1786.76 114.64 1786.76 125.573 1786.76 136.509 1777.9 145.373 1766.96 145.373 1756.02 145.373 1747.16 136.509 1747.16 125.573 1747.2 114.653 1756.04 105.809 1766.96 105.773ZM1766.96 201.094C1751.08 201.021 1736.26 193.111 1727.36 179.961 1727.68 166.761 1753.76 159.494 1766.96 159.494 1780.16 159.494 1806.24 166.761 1806.56 179.961 1797.65 193.101 1782.84 201.008 1766.96 201.094Z" fill="#3F3D56" fill-rule="evenodd"/><path d="M1277.46 473.973C1241.29 473.973 1211.96 503.523 1211.96 539.974 1211.96 576.425 1241.29 605.973 1277.46 605.973 1313.64 605.973 1342.96 576.425 1342.96 539.974 1342.86 503.567 1313.59 474.08 1277.46 473.973ZM1277.46 493.773C1288.31 493.773 1297.11 502.638 1297.11 513.574 1297.11 524.509 1288.31 533.374 1277.46 533.374 1266.61 533.374 1257.81 524.509 1257.81 513.574 1257.85 502.653 1266.62 493.81 1277.46 493.773ZM1277.46 589.094C1261.7 589.021 1246.99 581.111 1238.16 567.96 1238.48 554.761 1264.36 547.494 1277.46 547.494 1290.56 547.494 1316.45 554.761 1316.76 567.96 1307.92 581.101 1293.22 589.008 1277.46 589.094Z" fill="#3F3D56" fill-rule="evenodd"/><path d="M1059.96 1464.97C1023.5 1464.97 993.96 1494.52 993.96 1530.97 993.96 1567.43 1023.5 1596.97 1059.96 1596.97 1096.39 1596.97 1125.96 1567.43 1125.96 1530.97 1125.83 1494.57 1096.36 1465.08 1059.96 1464.97ZM1059.96 1484.77C1070.88 1484.77 1079.76 1493.64 1079.76 1504.57 1079.76 1515.51 1070.88 1524.37 1059.96 1524.37 1049 1524.37 1040.16 1515.51 1040.16 1504.57 1040.19 1493.65 1049.04 1484.81 1059.96 1484.77ZM1059.96 1580.09C1044.05 1580.02 1029.24 1572.11 1020.36 1558.96 1020.66 1545.76 1046.76 1538.49 1059.96 1538.49 1073.16 1538.49 1099.23 1545.76 1099.56 1558.96 1090.65 1572.1 1075.83 1580.01 1059.96 1580.09Z" fill="#3F3D56" fill-rule="evenodd"/><path d="M2817.46 1455.97C2781.27 1455.97 2751.96 1485.52 2751.96 1521.97 2751.96 1558.43 2781.27 1587.97 2817.46 1587.97 2853.62 1587.97 2882.96 1558.43 2882.96 1521.97 2882.83 1485.57 2853.58 1456.08 2817.46 1455.97ZM2817.46 1475.77C2828.3 1475.77 2837.11 1484.64 2837.11 1495.57 2837.11 1506.51 2828.3 1515.37 2817.46 1515.37 2806.59 1515.37 2797.81 1506.51 2797.81 1495.57 2797.84 1484.65 2806.62 1475.81 2817.46 1475.77ZM2817.46 1571.09C2801.68 1571.02 2786.97 1563.11 2778.16 1549.96 2778.46 1536.76 2804.36 1529.49 2817.46 1529.49 2830.56 1529.49 2856.43 1536.76 2856.76 1549.96 2847.92 1563.1 2833.21 1571.01 2817.46 1571.09Z" fill="#3F3D56" fill-rule="evenodd"/><path d="M1917.81 1066.97 1910.96 1094.27C1918.72 1096.2 1942.65 1104.04 1946.52 1088.6 1950.56 1072.49 1925.57 1068.9 1917.81 1066.97Z" fill="#FFFFFF" fill-rule="evenodd"/><path d="M1907.38 1107.97 1899.96 1137.51C1909.11 1139.77 1937.35 1148.78 1941.52 1132.12 1945.88 1114.74 1916.53 1110.24 1907.38 1107.97Z" fill="#FFFFFF" fill-rule="evenodd"/><path d="M1946.71 986.671C1880.81 970.172 1814.07 1010.44 1797.64 1076.6 1781.21 1142.77 1821.31 1209.78 1887.21 1226.28 1953.1 1242.77 2019.84 1202.51 2036.27 1136.35 2052.71 1070.2 2012.63 1003.19 1946.75 986.681 1946.74 986.677 1946.72 986.674 1946.71 986.671ZM1971.18 1088.88C1969.41 1100.91 1962.77 1106.74 1953.95 1108.78 1966.06 1115.1 1972.22 1124.81 1966.35 1141.64 1959.07 1162.53 1941.76 1164.3 1918.75 1159.93L1913.17 1182.4 1899.67 1179.02 1905.18 1156.85C1901.59 1155.95 1898 1155.02 1894.43 1154.05L1888.9 1176.33 1875.42 1172.95 1881 1150.43C1877.85 1149.62 1874.65 1148.76 1871.38 1147.94L1853.82 1143.54 1860.52 1128.03C1860.52 1128.03 1870.46 1130.69 1870.33 1130.49 1872.91 1131.32 1875.67 1129.9 1876.5 1127.31 1876.5 1127.3 1876.51 1127.28 1876.51 1127.27L1885.34 1091.75C1885.83 1091.87 1886.31 1091.99 1886.76 1092.11 1886.31 1091.92 1885.84 1091.77 1885.36 1091.65L1891.65 1066.29C1892.04 1062.39 1889.25 1058.88 1885.37 1058.42 1885.58 1058.27 1875.57 1055.97 1875.57 1055.97L1879.16 1041.5 1897.77 1046.16 1897.76 1046.23C1900.55 1046.93 1903.44 1047.59 1906.37 1048.26L1911.9 1026.01 1925.39 1029.39 1919.97 1051.2C1923.59 1052.03 1927.24 1052.87 1930.79 1053.76L1936.17 1032.08 1949.66 1035.46 1944.13 1057.72C1961.17 1063.61 1973.63 1072.45 1971.18 1088.88Z" fill="#FFFFFF" fill-rule="evenodd"/><path d="M2804.46 402.973C2768.28 402.973 2738.96 432.525 2738.96 468.973 2738.96 505.425 2768.28 534.973 2804.46 534.973 2840.64 534.973 2869.96 505.425 2869.96 468.973 2869.86 432.567 2840.59 403.082 2804.46 402.973ZM2804.46 422.773C2815.31 422.773 2824.11 431.64 2824.11 442.573 2824.11 453.509 2815.31 462.373 2804.46 462.373 2793.61 462.373 2784.81 453.509 2784.81 442.573 2784.85 431.653 2793.62 422.809 2804.46 422.773ZM2804.46 518.094C2788.7 518.021 2773.99 510.111 2765.16 496.961 2765.47 483.76 2791.36 476.494 2804.46 476.494 2817.56 476.494 2843.45 483.76 2843.76 496.961 2834.92 510.101 2820.22 518.008 2804.46 518.094Z" fill-rule="evenodd"/></g></svg>