<svg width="1980" height="1978" xmlns="http://www.w3.org/2000/svg" xmlns:xlink="http://www.w3.org/1999/xlink" overflow="hidden"><defs><clipPath id="clip0"><rect x="1017" y="155" width="1980" height="1978"/></clipPath></defs><g clip-path="url(#clip0)" transform="translate(-1017 -155)"><path d="M1763.08 294.996 2520.09 463.452 2857 1145.5 2520.09 1827.55 1763.08 1996 1155.99 1524.01 1155.99 766.994Z" fill="#F4B183" fill-rule="evenodd"/><path d="M0 0 6.99987 0 6.99987 813.001 0 813.001Z" fill="#FFFFFF" fill-rule="evenodd" transform="matrix(-1 0 0 1 1766 295)"/><path d="M1275 745 1281 745 1281 1055 1275 1055Z" fill="#FFFFFF" fill-rule="evenodd"/><path d="M1265 1104 1775 1104 1775 1111 1265 1111Z" fill="#FFFFFF" fill-rule="evenodd"/><path d="M1156 1517 1863 1517 1863 1524 1156 1524Z" fill="#FFFFFF" fill-rule="evenodd"/><path d="M1966 460 2534 460 2534 467 1966 467Z" fill="#FFFFFF" fill-rule="evenodd"/><path d="M1910 529 1917 529 1917 973.001 1910 973.001Z" fill="#FFFFFF" fill-rule="evenodd"/><path d="M1334 1107.5C1334 1136.5 1310.49 1160 1281.5 1160 1252.5 1160 1229 1136.5 1229 1107.5 1229 1078.51 1252.5 1055 1281.5 1055 1310.49 1055 1334 1078.51 1334 1107.5Z" fill="#FFFFFF" fill-rule="evenodd"/><path d="M2565 745 2572 745 2572 1055 2565 1055Z" fill="#FFFFFF" fill-rule="evenodd"/><path d="M2075 1104 2513 1104 2513 1111 2075 1111Z" fill="#FFFFFF" fill-rule="evenodd"/><path d="M1966 1522 2740 1522 2740 1529 1966 1529Z" fill="#FFFFFF" fill-rule="evenodd"/><path d="M1910 1269 1917 1269 1917 1473 1910 1473Z" fill="#FFFFFF" fill-rule="evenodd"/><path d="M2621 693C2621 722.271 2597.5 746 2568.5 746 2539.51 746 2516 722.271 2516 693 2516 663.729 2539.51 640 2568.5 640 2597.5 640 2621 663.729 2621 693Z" fill="#FFFFFF" fill-rule="evenodd"/><path d="M1913.96 529.973C1883.03 529.973 1857.96 504.902 1857.96 473.973 1857.96 443.045 1883.03 417.973 1913.96 417.973 1944.89 417.973 1969.96 443.045 1969.96 473.973 1969.93 504.889 1944.88 529.94 1913.96 529.973ZM1913.96 424.561C1886.67 424.561 1864.55 446.685 1864.55 473.973 1864.55 501.262 1886.67 523.385 1913.96 523.385 1941.25 523.385 1963.37 501.262 1963.37 473.973 1963.34 446.698 1941.24 424.591 1913.96 424.561Z" fill="#FFFFFF" fill-rule="evenodd"/><path d="M1913.96 1581.97C1883.03 1581.97 1857.96 1556.9 1857.96 1525.97 1857.96 1495.04 1883.03 1469.97 1913.96 1469.97 1944.89 1469.97 1969.96 1495.04 1969.96 1525.97 1969.93 1556.89 1944.88 1581.94 1913.96 1581.97ZM1913.96 1476.56C1886.67 1476.56 1864.55 1498.68 1864.55 1525.97 1864.55 1553.26 1886.67 1575.39 1913.96 1575.39 1941.25 1575.39 1963.37 1553.26 1963.37 1525.97 1963.34 1498.7 1941.24 1476.59 1913.96 1476.56Z" fill="#FFFFFF" fill-rule="evenodd"/><path d="M2564.96 1163.97C2534.03 1163.97 2508.96 1138.9 2508.96 1107.97 2508.96 1077.04 2534.03 1051.97 2564.96 1051.97 2595.89 1051.97 2620.96 1077.04 2620.96 1107.97 2620.93 1138.89 2595.88 1163.94 2564.96 1163.97ZM2564.96 1058.56C2537.67 1058.56 2515.55 1080.68 2515.55 1107.97 2515.55 1135.26 2537.67 1157.39 2564.96 1157.39 2592.25 1157.39 2614.37 1135.26 2614.37 1107.97 2614.34 1080.7 2592.24 1058.59 2564.96 1058.56Z" fill="#FFFFFF" fill-rule="evenodd"/><path d="M1745.96 2001.97C1709.51 2001.97 1679.96 2031.3 1679.96 2067.47 1679.96 2103.65 1709.51 2132.97 1745.96 2132.97 1782.41 2132.97 1811.96 2103.65 1811.96 2067.47 1811.85 2031.34 1782.37 2002.08 1745.96 2001.97ZM1745.96 2021.62C1756.9 2021.62 1765.76 2030.42 1765.76 2041.27 1765.76 2052.13 1756.9 2060.92 1745.96 2060.92 1735.02 2060.92 1726.16 2052.13 1726.16 2041.27 1726.2 2030.44 1735.04 2021.66 1745.96 2021.62ZM1745.96 2116.22C1730.08 2116.15 1715.26 2108.3 1706.36 2095.25 1706.68 2082.15 1732.76 2074.94 1745.96 2074.94 1759.16 2074.94 1785.24 2082.15 1785.56 2095.25 1776.65 2108.29 1761.84 2116.14 1745.96 2116.22Z" fill="#3F3D56" fill-rule="evenodd"/><path d="M1757.46 155.973C1721.28 155.973 1691.96 185.301 1691.96 221.474 1691.96 257.649 1721.28 286.973 1757.46 286.973 1793.64 286.973 1822.96 257.649 1822.96 221.474 1822.86 185.344 1793.59 156.082 1757.46 155.973ZM1757.46 175.623C1768.31 175.623 1777.11 184.424 1777.11 195.273 1777.11 206.127 1768.31 214.923 1757.46 214.923 1746.61 214.923 1737.81 206.127 1737.81 195.273 1737.85 184.436 1746.62 175.659 1757.46 175.623ZM1757.46 270.222C1741.7 270.15 1726.99 262.3 1718.16 249.249 1718.47 236.149 1744.36 228.937 1757.46 228.937 1770.56 228.937 1796.45 236.149 1796.76 249.249 1787.92 262.29 1773.22 270.137 1757.46 270.222Z" fill="#3F3D56" fill-rule="evenodd"/><path d="M1095.46 663.973C1059.28 663.973 1029.96 693.523 1029.96 729.974 1029.96 766.425 1059.28 795.973 1095.46 795.973 1131.64 795.973 1160.96 766.425 1160.96 729.974 1160.86 693.567 1131.59 664.08 1095.46 663.973ZM1095.46 683.773C1106.31 683.773 1115.11 692.638 1115.11 703.574 1115.11 714.509 1106.31 723.374 1095.46 723.374 1084.61 723.374 1075.81 714.509 1075.81 703.574 1075.85 692.654 1084.62 683.81 1095.46 683.773ZM1095.46 779.094C1079.7 779.021 1064.99 771.111 1056.16 757.961 1056.47 744.761 1082.36 737.494 1095.46 737.494 1108.56 737.494 1134.45 744.761 1134.76 757.961 1125.92 771.101 1111.22 779.008 1095.46 779.094Z" fill="#3F3D56" fill-rule="evenodd"/><path d="M1083.96 1482.97C1047.5 1482.97 1017.96 1512.52 1017.96 1548.97 1017.96 1585.42 1047.5 1614.97 1083.96 1614.97 1120.39 1614.97 1149.96 1585.42 1149.96 1548.97 1149.83 1512.57 1120.36 1483.08 1083.96 1482.97ZM1083.96 1502.77C1094.88 1502.77 1103.76 1511.64 1103.76 1522.57 1103.76 1533.51 1094.88 1542.37 1083.96 1542.37 1073 1542.37 1064.16 1533.51 1064.16 1522.57 1064.19 1511.65 1073.04 1502.81 1083.96 1502.77ZM1083.96 1598.09C1068.05 1598.02 1053.24 1590.11 1044.36 1576.96 1044.66 1563.76 1070.76 1556.49 1083.96 1556.49 1097.16 1556.49 1123.23 1563.76 1123.56 1576.96 1114.65 1590.1 1099.83 1598.01 1083.96 1598.09Z" fill="#3F3D56" fill-rule="evenodd"/><path d="M2571.96 1795.97C2535.5 1795.97 2505.96 1825.3 2505.96 1861.47 2505.96 1897.65 2535.5 1926.97 2571.96 1926.97 2608.39 1926.97 2637.96 1897.65 2637.96 1861.47 2637.83 1825.34 2608.36 1796.08 2571.96 1795.97ZM2571.96 1815.62C2582.88 1815.62 2591.76 1824.42 2591.76 1835.27 2591.76 1846.13 2582.88 1854.92 2571.96 1854.92 2561 1854.92 2552.16 1846.13 2552.16 1835.27 2552.19 1824.44 2561.04 1815.66 2571.96 1815.62ZM2571.96 1910.22C2556.05 1910.15 2541.24 1902.3 2532.36 1889.25 2532.66 1876.15 2558.76 1868.94 2571.96 1868.94 2585.16 1868.94 2611.23 1876.15 2611.56 1889.25 2602.65 1902.29 2587.83 1910.14 2571.96 1910.22Z" fill="#3F3D56" fill-rule="evenodd"/><path d="M1917.81 1066.97 1910.96 1094.27C1918.72 1096.2 1942.65 1104.04 1946.52 1088.6 1950.56 1072.49 1925.57 1068.9 1917.81 1066.97Z" fill="#FFFFFF" fill-rule="evenodd"/><path d="M1907.38 1107.97 1899.96 1137.51C1909.11 1139.77 1937.35 1148.78 1941.52 1132.12 1945.88 1114.74 1916.53 1110.24 1907.38 1107.97Z" fill="#FFFFFF" fill-rule="evenodd"/><path d="M1946.71 986.671C1880.81 970.172 1814.07 1010.44 1797.64 1076.6 1781.21 1142.77 1821.31 1209.78 1887.21 1226.28 1953.1 1242.77 2019.84 1202.51 2036.27 1136.35 2052.71 1070.2 2012.63 1003.19 1946.75 986.681 1946.74 986.677 1946.72 986.674 1946.71 986.671ZM1971.18 1088.88C1969.41 1100.91 1962.77 1106.74 1953.95 1108.78 1966.06 1115.1 1972.22 1124.81 1966.35 1141.64 1959.07 1162.53 1941.76 1164.3 1918.75 1159.93L1913.17 1182.4 1899.67 1179.02 1905.18 1156.85C1901.59 1155.95 1898 1155.02 1894.43 1154.05L1888.9 1176.33 1875.42 1172.95 1881 1150.43C1877.85 1149.62 1874.65 1148.76 1871.38 1147.94L1853.82 1143.54 1860.52 1128.03C1860.52 1128.03 1870.46 1130.69 1870.33 1130.49 1872.91 1131.32 1875.67 1129.9 1876.5 1127.31 1876.5 1127.3 1876.51 1127.28 1876.51 1127.27L1885.34 1091.75C1885.83 1091.87 1886.31 1091.99 1886.76 1092.11 1886.31 1091.92 1885.84 1091.77 1885.36 1091.65L1891.65 1066.29C1892.04 1062.39 1889.25 1058.88 1885.37 1058.42 1885.58 1058.27 1875.57 1055.97 1875.57 1055.97L1879.16 1041.5 1897.77 1046.16 1897.76 1046.23C1900.55 1046.93 1903.44 1047.59 1906.37 1048.26L1911.9 1026.01 1925.39 1029.39 1919.97 1051.2C1923.59 1052.03 1927.24 1052.87 1930.79 1053.76L1936.17 1032.08 1949.66 1035.46 1944.13 1057.72C1961.17 1063.61 1973.63 1072.45 1971.18 1088.88Z" fill="#FFFFFF" fill-rule="evenodd"/><path d="M2931.46 1081.97C2895.27 1081.97 2865.96 1111.52 2865.96 1147.97 2865.96 1184.43 2895.27 1213.97 2931.46 1213.97 2967.62 1213.97 2996.96 1184.43 2996.96 1147.97 2996.83 1111.57 2967.58 1082.08 2931.46 1081.97ZM2931.46 1101.77C2942.3 1101.77 2951.11 1110.64 2951.11 1121.57 2951.11 1132.51 2942.3 1141.37 2931.46 1141.37 2920.59 1141.37 2911.81 1132.51 2911.81 1121.57 2911.84 1110.65 2920.62 1101.81 2931.46 1101.77ZM2931.46 1197.09C2915.68 1197.02 2900.97 1189.11 2892.16 1175.96 2892.46 1162.76 2918.36 1155.49 2931.46 1155.49 2944.56 1155.49 2970.43 1162.76 2970.76 1175.96 2961.92 1189.1 2947.21 1197.01 2931.46 1197.09Z" fill="#3F3D56" fill-rule="evenodd"/><path d="M2581.46 353.973C2545.28 353.973 2515.96 383.525 2515.96 419.973 2515.96 456.425 2545.28 485.973 2581.46 485.973 2617.64 485.973 2646.96 456.425 2646.96 419.973 2646.86 383.568 2617.59 354.082 2581.46 353.973ZM2581.46 373.773C2592.31 373.773 2601.11 382.641 2601.11 393.573 2601.11 404.51 2592.31 413.373 2581.46 413.373 2570.61 413.373 2561.81 404.51 2561.81 393.573 2561.85 382.654 2570.62 373.809 2581.46 373.773ZM2581.46 469.094C2565.7 469.021 2550.99 461.111 2542.16 447.961 2542.47 434.761 2568.36 427.494 2581.46 427.494 2594.56 427.494 2620.45 434.761 2620.76 447.961 2611.92 461.101 2597.22 469.008 2581.46 469.094Z" fill="#3F3D56" fill-rule="evenodd"/></g></svg>